<svg width="136" height="40" viewBox="0 0 136 40" fill="none" xmlns="http://www.w3.org/2000/svg">
<rect width="40" height="40" rx="8" fill="#2051E5"/>
<path d="M16.4148 27.2557C19.6534 27.2557 21.8352 25.679 22.3466 23.25L18.9886 23.0284C18.6222 24.0256 17.6847 24.5455 16.4744 24.5455C14.6591 24.5455 13.5085 23.3438 13.5085 21.392V21.3835H22.4233V20.3864C22.4233 15.9375 19.7301 13.7386 16.2699 13.7386C12.4176 13.7386 9.92045 16.4744 9.92045 20.5142C9.92045 24.6648 12.3835 27.2557 16.4148 27.2557ZM13.5085 19.1335C13.5852 17.642 14.7188 16.4489 16.3295 16.4489C17.9062 16.4489 18.9972 17.5739 19.0057 19.1335H13.5085ZM26.9148 27.2216C28.0057 27.2216 28.9517 26.3097 28.9602 25.1761C28.9517 24.0597 28.0057 23.1477 26.9148 23.1477C25.7898 23.1477 24.8608 24.0597 24.8693 25.1761C24.8608 26.3097 25.7898 27.2216 26.9148 27.2216Z" fill="white"/>
<path d="M53.1378 27H61.9844V24.718H55.9055V21.5923H61.505V19.3104H55.9055V16.1911H61.9588V13.9091H53.1378V27ZM73.2615 17.1818H70.3787L68.3461 24.2067H68.2438L66.2047 17.1818H63.3283L66.7608 27H69.829L73.2615 17.1818ZM78.7955 27.1918C81.2244 27.1918 82.8608 26.0092 83.2443 24.1875L80.7259 24.0213C80.451 24.7692 79.7479 25.1591 78.8402 25.1591C77.4787 25.1591 76.6158 24.2578 76.6158 22.794V22.7876H83.3018V22.0398C83.3018 18.7031 81.282 17.054 78.6868 17.054C75.7976 17.054 73.9247 19.1058 73.9247 22.1357C73.9247 25.2486 75.772 27.1918 78.7955 27.1918ZM76.6158 21.1001C76.6733 19.9815 77.5234 19.0866 78.7315 19.0866C79.9141 19.0866 80.7322 19.9304 80.7386 21.1001H76.6158ZM87.8018 21.3239C87.8082 20.0582 88.5625 19.3168 89.6619 19.3168C90.755 19.3168 91.4134 20.0327 91.407 21.2344V27H94.13V20.7486C94.13 18.4602 92.7876 17.054 90.7422 17.054C89.2848 17.054 88.2301 17.7699 87.7891 18.9141H87.674V17.1818H85.0788V27H87.8018V21.3239ZM101.498 17.1818H99.6511V14.8295H96.9281V17.1818H95.5858V19.2273H96.9281V24.3409C96.9153 26.2649 98.2257 27.2173 100.201 27.1342C100.904 27.1087 101.403 26.968 101.677 26.8786L101.249 24.8523C101.115 24.8778 100.827 24.9418 100.572 24.9418C100.028 24.9418 99.6511 24.7372 99.6511 23.983V19.2273H101.498V17.1818ZM103.943 27L105.343 23.0561H110.84L112.24 27H113.493L108.731 13.9091H107.453L102.691 27H103.943ZM105.727 21.9822L108.047 15.4624H108.137L110.457 21.9822H105.727ZM115.481 30.6818H116.625V25.1783H116.727C117.117 26.0795 117.961 27.2045 119.744 27.2045C122.148 27.2045 123.784 25.1591 123.784 22.1165C123.784 19.0866 122.154 17.0476 119.725 17.0476C117.923 17.0476 117.124 18.1726 116.727 19.0547H116.587V17.1818H115.481V30.6818ZM116.606 22.0973C116.606 19.745 117.686 18.0831 119.604 18.0831C121.579 18.0831 122.64 19.8345 122.64 22.0973C122.64 24.3857 121.56 26.1626 119.604 26.1626C117.705 26.1626 116.606 24.4688 116.606 22.0973ZM126.256 30.6818H127.401V25.1783H127.503C127.893 26.0795 128.737 27.2045 130.52 27.2045C132.923 27.2045 134.56 25.1591 134.56 22.1165C134.56 19.0866 132.93 17.0476 130.501 17.0476C128.698 17.0476 127.899 18.1726 127.503 19.0547H127.362V17.1818H126.256V30.6818ZM127.381 22.0973C127.381 19.745 128.462 18.0831 130.379 18.0831C132.354 18.0831 133.415 19.8345 133.415 22.0973C133.415 24.3857 132.335 26.1626 130.379 26.1626C128.481 26.1626 127.381 24.4688 127.381 22.0973Z" fill="#E1E8F0"/>
</svg>
